<svg xmlns="http://www.w3.org/2000/svg" width="89.716" height="87.5" viewBox="0 0 89.716 87.5"><defs><style>.a{fill:#fff;fill-rule:evenodd;}</style></defs><path class="a" d="M48.47,5.1A44.863,44.863,0,0,0,34.288,92.527c2.241.416,3.064-.973,3.064-2.158,0-1.07-.042-4.6-.061-8.352-12.479,2.714-15.113-5.293-15.113-5.293C20.138,71.54,17.2,70.161,17.2,70.161c-4.071-2.784.307-2.726.307-2.726,4.5.316,6.876,4.623,6.876,4.623,4,6.856,10.494,4.874,13.054,3.729a9.555,9.555,0,0,1,2.848-6c-9.963-1.133-20.438-4.98-20.438-22.168a17.364,17.364,0,0,1,4.623-12.041c-.466-1.129-2-5.692.434-11.87,0,0,3.766-1.206,12.338,4.6a42.515,42.515,0,0,1,22.467,0c8.562-5.8,12.323-4.6,12.323-4.6,2.442,6.178.906,10.741.44,11.87a17.329,17.329,0,0,1,4.617,12.041c0,17.229-10.494,21.022-20.483,22.133,1.61,1.392,3.043,4.123,3.043,8.307,0,6-.052,10.833-.052,12.31,0,1.194.808,2.592,3.081,2.152A44.863,44.863,0,0,0,48.47,5.1Z" transform="translate(-3.612 -5.103)"/></svg>