<?xml version="1.0" encoding="UTF-8"?><svg xmlns="http://www.w3.org/2000/svg" viewBox="0 0 50 50"><path d="M25 2C12.318 2 2 12.317 2 25s10.318 23 23 23 23-10.317 23-23S37.682 2 25 2zm-7 33h-4V20h4v15zm-2-18a2 2 0 1 1-.001-3.999A2 2 0 0 1 16 17zm21 18h-4v-7.5c0-1.925-1.575-3.5-3.5-3.5S26 25.575 26 27.5V35h-4V20h4v1.816A6.476 6.476 0 0 1 30.5 20a6.5 6.5 0 0 1 6.5 6.5V35z"/><metadata><rdf:RDF xmlns:rdf="http://www.w3.org/1999/02/22-rdf-syntax-ns#" xmlns:rdfs="http://www.w3.org/2000/01/rdf-schema#" xmlns:dc="http://purl.org/dc/elements/1.1/"><rdf:Description about="https://iconscout.com/legal#licenses" dc:title="linkedin,circled,filled" dc:description="linkedin,circled,filled" dc:publisher="Iconscout" dc:date="2017-12-11" dc:format="image/svg+xml" dc:language="en"><dc:creator><rdf:Bag><rdf:li>Icons8</rdf:li></rdf:Bag></dc:creator></rdf:Description></rdf:RDF></metadata></svg>