<svg xmlns="http://www.w3.org/2000/svg" width="26" height="26" viewBox="0 0 26 26"><path fill="#000" d="M 13 0 A 12.999989 12.999989 0 0 0 0 13 A 12.999989 12.999989 0 0 0 13 26 A 12.999989 12.999989 0 0 0 26 13 A 12.999989 12.999989 0 0 0 13 0 z M 5.6210938 8 L 5.6210938 8.0039062 L 5.640625 8.0195312 L 20.496094 8.0195312 A 0.50004788 0.50004788 0 0 1 20.998047 8.5195312 L 20.998047 8.8085938 L 20.998047 17.5 A 0.50004788 0.50004788 0 0 1 20.496094 18 L 5.5273438 18 A 0.50004788 0.50004788 0 0 1 5.0273438 17.5 L 5.0273438 8.8046875 L 5 8.7832031 L 5.0273438 8.7480469 L 5.0273438 8.515625 A 0.50004788 0.50004788 0 0 1 5.5273438 8.015625 L 5.609375 8.015625 L 5.6210938 8 z M 6.9023438 9.015625 L 13.019531 13.863281 L 19.128906 9.015625 L 6.9023438 9.015625 z M 6.0253906 9.5976562 L 6.0253906 17 L 19.996094 17 L 19.996094 9.6015625 L 13.330078 14.894531 A 0.50004788 0.50004788 0 0 1 12.710938 14.894531 L 6.0253906 9.5976562 z "/></svg>