<svg xmlns="http://www.w3.org/2000/svg" width="87.5" height="87.5" viewBox="0 0 87.5 87.5"><defs><style>.a{fill:#fff;}</style></defs><path class="a" d="M43.75,0A43.75,43.75,0,1,0,87.5,43.75,43.75,43.75,0,0,0,43.75,0ZM18.917,26.923v.013l.066.053H68.977a1.683,1.683,0,0,1,1.689,1.683V58.894a1.683,1.683,0,0,1-1.689,1.683H18.6a1.683,1.683,0,0,1-1.683-1.683V29.631l-.092-.072.092-.118v-.782A1.683,1.683,0,0,1,18.6,26.976h.276Zm4.312,3.418L43.816,46.655l20.56-16.314ZM20.278,32.3V57.212H67.295v-24.9L44.861,50.126a1.683,1.683,0,0,1-2.084,0Z"/></svg>