<svg xmlns="http://www.w3.org/2000/svg" width="89.716" height="89.716" viewBox="0 0 89.716 89.716"><defs><style>.a{fill:#fff;fill-rule:evenodd;}</style></defs><path class="a" d="M44.858,0A44.858,44.858,0,1,0,89.716,44.858,44.858,44.858,0,0,0,44.858,0ZM27.1,20.56H64.483a.935.935,0,0,1,.935.934V60.745a.935.935,0,0,1-.274.661l-7.476,7.476a.935.935,0,0,1-.661.274H27.1a.935.935,0,0,1-.935-.934V21.494a.935.935,0,0,1,.934-.935Zm.935,1.869V67.294H56.073q0-.009,0-.018V60.745a.935.935,0,0,1,.934-.935h6.542V22.429Zm5.06,3.738,1.482,1.482,1.482-1.482,1.322,1.325L35.9,28.971l1.482,1.482L36.06,31.774l-1.482-1.482L33.1,31.774l-1.321-1.322,1.482-1.482-1.482-1.478Zm8.024,0H59.811v1.869H41.12Zm0,3.738H59.811v1.869H41.12Zm0,3.738H48.6v1.869H41.12ZM33.1,39.251l1.482,1.482,1.482-1.482,1.322,1.325L35.9,42.054l1.482,1.482L36.06,44.858l-1.482-1.482L33.1,44.858l-1.321-1.321,1.482-1.482-1.482-1.478Zm8.024,0H59.811V41.12H41.12Zm0,3.738H59.811v1.869H41.12Zm0,3.738H52.334V48.6H41.12ZM33.1,52.334l1.482,1.482,1.482-1.482,1.322,1.325L35.9,55.138l1.482,1.482L36.06,57.942l-1.482-1.482L33.1,57.942,31.774,56.62l1.482-1.482L31.774,53.66Zm8.024,0H59.811V54.2H41.12Zm0,3.738H59.811v1.869H41.12Zm0,3.738h3.738V61.68H41.12ZM57.942,61.68v4.286l4.286-4.286Z"/></svg>
