<?xml version="1.0" encoding="utf-8"?>
<!-- Generator: Adobe Illustrator 24.1.0, SVG Export Plug-In . SVG Version: 6.00 Build 0)  -->
<svg version="1.1"
	 id="svg8419" xmlns:cc="http://creativecommons.org/ns#" xmlns:dc="http://purl.org/dc/elements/1.1/" xmlns:inkscape="http://www.inkscape.org/namespaces/inkscape" xmlns:rdf="http://www.w3.org/1999/02/22-rdf-syntax-ns#" xmlns:sodipodi="http://sodipodi.sourceforge.net/DTD/sodipodi-0.dtd" xmlns:svg="http://www.w3.org/2000/svg"
	 xmlns="http://www.w3.org/2000/svg" xmlns:xlink="http://www.w3.org/1999/xlink" x="0px" y="0px" viewBox="0 0 144 144"
	 style="enable-background:new 0 0 144 144;" xml:space="preserve">
<style type="text/css">
	.st0{fill-rule:evenodd;clip-rule:evenodd;fill:#3B3C3D;}
	.st1{fill-rule:evenodd;clip-rule:evenodd;fill:#EBEBEB;}
	.st2{fill:#3B3C3D;}
	.st3{fill:#36D7B7;}
	.st4{fill-rule:evenodd;clip-rule:evenodd;fill:#A0A0A0;}
	.st5{fill-rule:evenodd;clip-rule:evenodd;fill:#D3D4D6;}
</style>
<sodipodi:namedview  bordercolor="#666666" borderopacity="1.0" id="base" inkscape:current-layer="layer1" inkscape:cx="66.430578" inkscape:cy="94.596101" inkscape:document-units="px" inkscape:pageopacity="0.0" inkscape:pageshadow="2" inkscape:window-height="716" inkscape:window-maximized="1" inkscape:window-width="1366" inkscape:window-x="-8" inkscape:window-y="-8" inkscape:zoom="2.9684245" pagecolor="#ffffff" showgrid="false" units="px">
	</sodipodi:namedview>
<g id="layer1" transform="translate(0,-908.36216)" inkscape:groupmode="layer" inkscape:label="Layer 1">
	<g id="g21118" transform="translate(-1721.073,-4953.6945)">
		<circle id="circle21120" cx="1793.1" cy="5934.1" r="72"/>
		<g id="g21122" transform="translate(-3261.6157,3572.0271)">
			<path id="path21124" inkscape:connector-curvature="0" class="st0" d="M5028.9,2409c0-2,0-4,0-6h-5c0-2,0-4,0-6h-5.3v-82h62v6
				h5.3v6h5v82H5028.9z"/>
			<path id="path21126" inkscape:connector-curvature="0" class="st1" d="M5020.5,2395h58v-78h-58V2395z"/>
			<path id="path21128" inkscape:connector-curvature="0" class="st2" d="M5049.5,2331.6l-11.3,5.7v0.6v13.5l11.3,5.7l11.3-5.7
				v-14.2L5049.5,2331.6z"/>
			<path id="path21130" inkscape:connector-curvature="0" class="st3" d="M5049.5,2333.8l9.3,4.7v11.7l-9.3,4.7l-9.3-4.7v-11.7
				L5049.5,2333.8z"/>
			<path id="path21132" inkscape:connector-curvature="0" class="st2" d="M5049.5,2336.7l-3.6,1.8v3.8l3.6,1.8l0.4-0.2l3.1-1.6v-3.8
				L5049.5,2336.7z"/>
			<path id="path21134" inkscape:connector-curvature="0" class="st2" d="M5049.5,2339l1.6,0.8v1.3l-1.6,0.8l-1.6-0.8v-1.3
				L5049.5,2339z"/>
			<path id="path21136" inkscape:connector-curvature="0" class="st2" d="M5043.3,2344.3v4.5l6.2,3.1l6.2-3.1v-4.5h-2v3.3l-4.2,2.1
				l-4.2-2.1v-3.3H5043.3z"/>
			<path id="path21138" inkscape:connector-curvature="0" class="st2" d="M5033.7,2362.9v0.2v1.8h31.7v-2H5033.7z"/>
			<path id="path21140" inkscape:connector-curvature="0" class="st2" d="M5033.7,2370.7v0.2v1.8h31.7v-2H5033.7z"/>
			<path id="path21142" inkscape:connector-curvature="0" class="st2" d="M5033.7,2378.5v0.2v1.8h31.7v-2H5033.7z"/>
			<path id="path21144" inkscape:connector-curvature="0" class="st4" d="M5030.9,2407h58v-78h-3v74h-55V2407z"/>
			<path id="path21146" inkscape:connector-curvature="0" class="st5" d="M5025.8,2401h58v-78h-3.3v74h-54.7V2401z"/>
		</g>
	</g>
</g>
</svg>
